<?xml version="1.0" encoding="UTF-8"?> <svg xmlns="http://www.w3.org/2000/svg" width="200" height="54" viewBox="0 0 200 54" fill="none"><g clip-path="url(#clip0)"><path d="M43.5556 43.2222C39.1111 47.7778 33.1111 50.3333 26.6667 50.3333C13.6667 50.3333 3 39.6667 3 26.6667C3 13.6667 13.6667 3 26.6667 3C33 3 38.8889 5.44444 43.4444 10L43.5556 10.1111C44 10.5556 44.2222 11.1111 44.2222 11.6667C44.2222 12.2222 44 12.8889 43.5556 13.2222C42.6667 14.1111 41.2222 14.1111 40.3333 13.2222C36.7778 9.55555 31.8889 7.55556 26.6667 7.55556C16.1111 7.55556 7.55556 16.1111 7.55556 26.6667C7.55556 37.2222 16.1111 45.7778 26.6667 45.7778C31.8889 45.7778 36.7778 43.7778 40.3333 40C40.3333 40 40.3333 39.8889 40.4444 39.8889C43.7778 36.4444 45.7778 31.7778 45.7778 26.6667C45.7778 25.5556 45.6667 24.3333 45.4444 23.2222C45.3333 22.5556 44.6667 22 44 22C44 22 27 22 26.8889 22H26.6667H26.4444C25.6667 22 24.8889 22.3333 24.2222 22.6667C23.8889 22.8889 23.5556 23.1111 23.3333 23.4444L23 23.8889C22.4444 24.6667 22.1111 25.6667 22.1111 26.6667C22.1111 27.4444 22.3333 28.2222 22.6667 29L23 29.4444V29.5556L23.3333 30C23.5556 30.2222 23.8889 30.5556 24.2222 30.7778C25 31.2222 25.7778 31.4444 26.6667 31.4444H26.7778C26.7778 31.4444 31.1111 31.4444 33.7778 31.4444C32.2222 33.7778 29.5556 35.3333 26.6667 35.3333C22 35.3333 18.1111 31.4444 18.1111 26.7778C18.1111 23.2222 20.2222 20.2222 23.3333 18.8889C25.2222 18.1111 27.4444 18 29.5556 18.6667C30.3333 19 31.2222 18.5556 31.4444 17.7778C31.6667 17 31.3333 16.1111 30.5556 15.8889C29.3333 15.4444 28.1111 15.2222 26.8889 15.2222H26.7778C26.6667 15.2222 26.4444 15.2222 26.3333 15.2222C26.2222 15.2222 26.1111 15.2222 25.8889 15.2222C25.6667 15.2222 25.4444 15.2222 25.2222 15.3333C25.1111 15.3333 25 15.3333 24.7778 15.4444C24.5556 15.4444 24.3333 15.5556 24.2222 15.5556C24 15.5556 23.7778 15.6667 23.6667 15.6667C18.7778 17 15.2222 21.4444 15.2222 26.7778C15.2222 33.1111 20.4444 38.3333 26.7778 38.3333C31.7778 38.3333 36.2222 35.1111 37.7778 30.3333C37.8889 29.8889 37.8889 29.3333 37.5556 29C37.2222 28.5556 36.7778 28.3333 36.3333 28.3333H26.8889C26.8889 28.3333 26.8889 28.3333 26.7778 28.3333C26.4444 28.3333 26.2222 28.2222 25.8889 28.1111C25.7778 28 25.6667 28 25.5556 27.8889L25.4444 27.7778L25.3333 27.6667C25.2222 27.4444 25.1111 27.1111 25.1111 26.8889C25.1111 26.5556 25.2222 26.2222 25.4444 25.8889L25.5556 25.7778C25.6667 25.6667 25.7778 25.5556 25.8889 25.5556C26.1111 25.4444 26.4444 25.3333 26.6667 25.3333H26.7778H26.8889C26.8889 25.3333 26.8889 25.3333 27 25.3333C27 25.3333 40.5556 25.3333 42.8889 25.3333C43 25.8889 43 26.4444 43 27C43 31.4444 41.2222 35.4444 38.3333 38.3333C35.4444 41.2222 31.4444 43 27 43C17.7778 42.7778 10.5556 35.5556 10.5556 26.6667C10.5556 17.7778 17.7778 10.5556 26.6667 10.5556C31 10.5556 35.1111 12.3333 38.2222 15.4444C40.3333 17.4444 43.6667 17.4444 45.6667 15.4444C46.6667 14.4444 47.2222 13.1111 47.2222 11.6667C47.2222 10.2222 46.6667 8.88889 45.6667 7.88889L45.5556 7.77778C40.5556 2.77778 33.7778 0 26.6667 0C12 0 0 12 0 26.6667C0 41.3333 12 53.3333 26.6667 53.3333C33.8889 53.3333 40.6667 50.4444 45.6667 45.3333C46.2222 44.7778 46.2222 43.7778 45.6667 43.2222C45.1111 42.6667 44.1111 42.6667 43.5556 43.2222Z" fill="#58B14C"></path><path d="M80 25.2222H69.3333V28H76.7778C76.2222 32 73.1111 35.1111 68.6666 35.1111C63.6666 35.1111 60.4444 31.2222 60.4444 26.4444C60.4444 21.6667 63.6666 17.7778 68.6666 17.7778C71.2222 17.7778 73.2222 18.7778 74.6666 20.3333L77 18.4444C75 16.2222 72.1111 15 68.6666 15C62 15 57.3333 20 57.3333 26.4444C57.3333 32.8889 62 37.8889 68.6666 37.8889C75.3333 37.8889 80 32.8889 80 26.4444C80.1111 26.1111 80 25.6667 80 25.2222Z" fill="#7D868C"></path><path d="M87.2222 18.2222H91.1111C93.4444 18.2222 95.7778 18.7778 95.7778 21.6667C95.7778 24.5555 93.4444 25.1111 91.1111 25.1111H87.2222V18.2222ZM84.3333 37.3333H87.2222V27.7778H90.5555L96.1111 37.3333H99.7778L93.6666 27.4444C96.8889 27.1111 99 24.4444 99 21.6667C99 18.8889 97.5555 15.5555 92 15.5555H84.3333V37.3333Z" fill="#7D868C"></path><path d="M103.889 15.6667H106.778V37.3334H103.889V15.6667Z" fill="#7D868C"></path><path d="M115.222 18.4444H119.667C126.667 18.4444 128.111 23.7778 128.111 26.5555C128.111 31.8889 123.889 34.6667 118.889 34.6667H115.222V18.4444ZM112.222 37.3333H119.333C127.111 37.3333 131.222 32 131.222 26.4444C131.222 22.4444 129 15.5555 119.778 15.5555H112.222V37.3333Z" fill="#7D868C"></path><path d="M135.444 15.6667H138.333V37.3334H135.444V15.6667Z" fill="#7D868C"></path><path d="M142.444 34.6667L154.778 18.4445H142.778V15.6667H158.444V18.4445L146.111 34.6667H158.556V37.4445H142.333V34.6667H142.444Z" fill="#7D868C"></path><path d="M162.778 15.6667H176.667V18.4445H165.556V24.8889H175.889V27.6667H165.556V34.6667H177.111V37.4445H162.556V15.6667H162.778Z" fill="#7D868C"></path><path d="M188.555 15.6667H181V37.3334H183.889V18.4445H188.333C195.333 18.4445 196.778 23.7778 196.778 26.5556V37.4445H197H199.778H200V26.5556C200 22.5556 197.778 15.6667 188.555 15.6667Z" fill="#7D868C"></path></g><defs><clipPath id="clip0"><rect width="200" height="53.3333" fill="white"></rect></clipPath></defs></svg> 